:FULLY-SPECIFIED
:FORCE-ALL-JOINTS-BE-3DOF
:DEGREES
510
root 5.90826 16.3016 -5.21281 -166.496 77.6993 -171.58
lfemur -24.2939 -14.8635 -23.1223
ltibia 52.9933 0 0
lfoot -26.6065 -1.05065 0
ltoes 5.16377 0 0
rfemur -57.8236 5.72933 4.53264
rtibia 57.8588 0 0
rfoot 11.7275 8.47571 0
rtoes -18.1929 0 0
lowerback 8.82208 0.400203 -0.775968
upperback 1.45695 0.668624 3.16259
thorax -3.48568 0.393709 3.64256
lowerneck -8.42072 -12.5646 -4.17735
upperneck 11.81 -16.7108 2.78918
head 5.52539 -8.13949 0.237521
lclavicle 3.69882e-14 -1.13592e-15 0
lhumerus -46.8099 -34.7057 118.208
lradius 56.9814 0 0
lwrist 6.39978 0 0
lhand 5.75087 -1.03608 0
lfingers 7.12502 0 0
lthumb 31.0845 26.3364 0
rclavicle 3.69882e-14 -1.13592e-15 0
rhumerus -12.9525 41.9341 -72.4895
rradius 118.205 0 0
rwrist -21.1265 0 0
rhand 24.1383 -13.3176 0
rfingers 7.12502 0 0
rthumb 48.2572 -754.516 0
511
root 5.96665 16.2767 -5.15654 -167.595 76.3873 -172.65
lfemur -24.2337 -14.2548 -23.2619
ltibia 53.6618 0 0
lfoot -26.8153 0.0674514 0
ltoes 3.88105 0 0
rfemur -57.5807 5.44624 4.09049
rtibia 56.3916 0 0
rfoot 12.2264 8.35971 0
rtoes -18.605 0 0
lowerback 9.02545 0.493278 -0.723005
upperback 1.56225 0.814145 3.37433
thorax -3.5007 0.469736 3.81708
lowerneck -8.29495 -12.8488 -4.4092
upperneck 12.0268 -17.0857 2.90983
head 5.61346 -8.31948 0.271036
lclavicle 4.65227e-14 -4.14609e-15 0
lhumerus -46.5497 -34.6873 118.302
lradius 57.0664 0 0
lwrist 6.61237 0 0
lhand 5.21801 -1.32879 0
lfingers 7.12502 0 0
lthumb 30.577 26.1448 0
rclavicle 4.65227e-14 -4.14609e-15 0
rhumerus -9.988 40.7893 -70.0563
rradius 120.607 0 0
rwrist -26.812 0 0
rhand 27.0854 -13.6632 0
rfingers 7.12502 0 0
rthumb 50.9967 -753.77 0
512
root 6.02504 16.2519 -5.10027 -168.693 75.0753 -173.721
lfemur -24.1735 -13.6461 -23.4015
ltibia 54.3304 0 0
lfoot -27.024 1.18555 0
ltoes 2.59832 0 0
rfemur -57.3378 5.16315 3.64834
rtibia 54.9244 0 0
rfoot 12.7254 8.24372 0
rtoes -19.017 0 0
lowerback 9.22882 0.586354 -0.670043
upperback 1.66754 0.959666 3.58606
thorax -3.51572 0.545763 3.9916
lowerneck -8.16919 -13.133 -4.64105
upperneck 12.2435 -17.4605 3.03047
head 5.70154 -8.49947 0.304551
lclavicle 5.60573e-14 -7.15625e-15 0
lhumerus -46.2895 -34.669 118.396
lradius 57.1515 0 0
lwrist 6.82495 0 0
lhand 4.68514 -1.62149 0
lfingers 7.12502 0 0
lthumb 30.0696 25.9532 0
rclavicle 5.60573e-14 -7.15625e-15 0
rhumerus -7.02353 39.6445 -67.6231
rradius 123.01 0 0
rwrist -32.4975 0 0
rhand 30.0326 -14.0088 0
rfingers 7.12502 0 0
rthumb 53.7363 -753.024 0
513
root 6.08289 16.2032 -5.0471 -168.981 73.693 -174.139
lfemur -24.7039 -13.0862 -23.387
ltibia 55.5313 0 0
lfoot -27.1732 1.7496 0
ltoes 1.67093 0 0
rfemur -56.8268 4.74363 3.05699
rtibia 53.58 0 0
rfoot 12.8174 8.3722 0
rtoes -20.203 0 0
lowerback 9.32334 0.587665 -0.448839
upperback 1.78816 1.00891 3.81931
thorax -3.4473 0.575331 4.10486
lowerneck -8.04644 -13.3513 -4.81126
upperneck 12.3283 -17.7509 3.14186
head 5.74729 -8.63825 0.3353
lclavicle 3.86778e-14 -9.76884e-15 0
lhumerus -46.0979 -34.2204 118.207
lradius 57.4069 0 0
lwrist 7.56507 0 0
lhand 3.29931 -2.03268 0
lfingers 7.12502 0 0
lthumb 28.7423 25.7324 0
rclavicle 3.86778e-14 -9.76884e-15 0
rhumerus -5.00673 37.1362 -67.5168
rradius 124.376 0 0
rwrist -34.6514 0 0
rhand 27.2698 -13.6959 0
rfingers 7.12502 0 0
rthumb 51.1716 -753.762 0
514
root 6.14075 16.1544 -4.99392 -169.269 72.3107 -174.556
lfemur -25.2343 -12.5263 -23.3726
ltibia 56.7322 0 0
lfoot -27.3223 2.31365 0
ltoes 0.743534 0 0
rfemur -56.3157 4.32412 2.46564
rtibia 52.2357 0 0
rfoot 12.9094 8.50068 0
rtoes -21.3889 0 0
lowerback 9.41786 0.588975 -0.227635
upperback 1.90877 1.05815 4.05255
thorax -3.37887 0.604899 4.21812
lowerneck -7.92369 -13.5695 -4.98147
upperneck 12.4131 -18.0413 3.25324
head 5.79304 -8.77702 0.366048
lclavicle 2.12984e-14 -1.23814e-14 0
lhumerus -45.9062 -33.7718 118.018
lradius 57.6624 0 0
lwrist 8.30519 0 0
lhand 1.91347 -2.44387 0
lfingers 7.12502 0 0
lthumb 27.4149 25.5116 0
rclavicle 2.12984e-14 -1.23814e-14 0
rhumerus -2.98993 34.6279 -67.4106
rradius 125.743 0 0
rwrist -36.8052 0 0
rhand 24.507 -13.3829 0
rfingers 7.12502 0 0
rthumb 48.6069 -754.499 0
515
root 6.1986 16.1057 -4.94075 -169.557 70.9284 -174.974
lfemur -25.7647 -11.9664 -23.3581
ltibia 57.9331 0 0
lfoot -27.4715 2.8777 0
ltoes -0.183859 0 0
rfemur -55.8047 3.9046 1.87428
rtibia 50.8913 0 0
rfoot 13.0014 8.62916 0
rtoes -22.5749 0 0
lowerback 9.51238 0.590286 -0.006431
upperback 2.02939 1.1074 4.2858
thorax -3.31045 0.634467 4.33138
lowerneck -7.80094 -13.7878 -5.15168
upperneck 12.4979 -18.3317 3.36463
head 5.83879 -8.9158 0.396797
lclavicle 3.91893e-15 -1.4994e-14 0
lhumerus -45.7146 -33.3232 117.829
lradius 57.9178 0 0
lwrist 9.04531 0 0
lhand 0.527641 -2.85506 0
lfingers 7.12502 0 0
lthumb 26.0876 25.2908 0
rclavicle 3.91893e-15 -1.4994e-14 0
rhumerus -0.97313 32.1196 -67.3043
rradius 127.109 0 0
rwrist -38.9591 0 0
rhand 21.7442 -13.07 0
rfingers 7.12502 0 0
rthumb 46.0422 -755.237 0
516
root 6.25645 16.057 -4.88758 -169.845 69.5462 -175.391
lfemur -26.2951 -11.4065 -23.3436
ltibia 59.1341 0 0
lfoot -27.6206 3.44176 0
ltoes -1.11125 0 0
rfemur -55.2936 3.48508 1.28293
rtibia 49.547 0 0
rfoot 13.0935 8.75764 0
rtoes -23.7608 0 0
lowerback 9.60691 0.591596 0.214773
upperback 2.15 1.15664 4.51904
thorax -3.24203 0.664036 4.44464
lowerneck -7.67818 -14.0061 -5.32188
upperneck 12.5827 -18.6222 3.47601
head 5.88454 -9.05457 0.427546
lclavicle -1.34605e-14 -1.76066e-14 0
lhumerus -45.523 -32.8747 117.641
lradius 58.1732 0 0
lwrist 9.78544 0 0
lhand -0.858191 -3.26626 0
lfingers 7.12502 0 0
lthumb 24.7603 25.0701 0
rclavicle -1.34605e-14 -1.76066e-14 0
rhumerus 1.04367 29.6114 -67.198
rradius 128.475 0 0
rwrist -41.1129 0 0
rhand 18.9815 -12.7571 0
rfingers 7.12502 0 0
rthumb 43.4775 -755.975 0
517
root 6.3143 16.0083 -4.83441 -170.133 68.1639 -175.809
lfemur -26.8255 -10.8467 -23.3291
ltibia 60.335 0 0
lfoot -27.7698 4.00581 0
ltoes -2.03864 0 0
rfemur -54.7826 3.06556 0.691579
rtibia 48.2026 0 0
rfoot 13.1855 8.88612 0
rtoes -24.9468 0 0
lowerback 9.70143 0.592907 0.435977
upperback 2.27062 1.20588 4.75229
thorax -3.17361 0.693604 4.5579
lowerneck -7.55543 -14.2244 -5.49209
upperneck 12.6675 -18.9126 3.5874
head 5.93029 -9.19335 0.458295
lclavicle -3.084e-14 -2.02192e-14 0
lhumerus -45.3314 -32.4261 117.452
lradius 58.4286 0 0
lwrist 10.5256 0 0
lhand -2.24402 -3.67745 0
lfingers 7.12502 0 0
lthumb 23.433 24.8493 0
rclavicle -3.084e-14 -2.02192e-14 0
rhumerus 3.06047 27.1031 -67.0917
rradius 129.841 0 0
rwrist -43.2668 0 0
rhand 16.2187 -12.4442 0
rfingers 7.12502 0 0
rthumb 40.9128 -756.713 0
518
root 6.37216 15.9595 -4.78123 -170.421 66.7816 -176.226
lfemur -27.3559 -10.2868 -23.3147
ltibia 61.5359 0 0
lfoot -27.9189 4.56986 0
ltoes -2.96604 0 0
rfemur -54.2715 2.64605 0.100227
rtibia 46.8583 0 0
rfoot 13.2775 9.0146 0
rtoes -26.1327 0 0
lowerback 9.79595 0.594217 0.657181
upperback 2.39123 1.25513 4.98553
thorax -3.10518 0.723172 4.67116
lowerneck -7.43268 -14.4426 -5.6623
upperneck 12.7523 -19.203 3.69878
head 5.97604 -9.33212 0.489043
lclavicle -4.82194e-14 -2.28318e-14 0
lhumerus -45.1397 -31.9775 117.263
lradius 58.6841 0 0
lwrist 11.2657 0 0
lhand -3.62986 -4.08864 0
lfingers 7.12502 0 0
lthumb 22.1056 24.6285 0
rclavicle -4.82194e-14 -2.28318e-14 0
rhumerus 5.07727 24.5948 -66.9855
rradius 131.208 0 0
rwrist -45.4206 0 0
rhand 13.4559 -12.1312 0
rfingers 7.12502 0 0
rthumb 38.3481 -757.45 0
519
root 6.43001 15.9108 -4.72806 -170.709 65.3993 -176.644
lfemur -27.8863 -9.72688 -23.3002
ltibia 62.7368 0 0
lfoot -28.0681 5.13391 0
ltoes -3.89343 0 0
rfemur -53.7605 2.22653 -0.491125
rtibia 45.5139 0 0
rfoot 13.3695 9.14308 0
rtoes -27.3187 0 0
lowerback 9.89047 0.595528 0.878385
upperback 2.51185 1.30437 5.21878
thorax -3.03676 0.75274 4.78442
lowerneck -7.30993 -14.6609 -5.83251
upperneck 12.8371 -19.4934 3.81017
head 6.02179 -9.4709 0.519792
lclavicle -6.55989e-14 -2.54444e-14 0
lhumerus -44.9481 -31.5289 117.074
lradius 58.9395 0 0
lwrist 12.0058 0 0
lhand -5.01569 -4.49983 0
lfingers 7.12502 0 0
lthumb 20.7783 24.4077 0
rclavicle -6.55989e-14 -2.54444e-14 0
rhumerus 7.09407 22.0865 -66.8792
rradius 132.574 0 0
rwrist -47.5745 0 0
rhand 10.6931 -11.8183 0
rfingers 7.12502 0 0
rthumb 35.7834 -758.188 0
